<?xml version="1.0" standalone="no"?>
<!DOCTYPE svg PUBLIC "-//W3C//DTD SVG 20010904//EN"
 "http://www.w3.org/TR/2001/REC-SVG-20010904/DTD/svg10.dtd">
<svg version="1.0" xmlns="http://www.w3.org/2000/svg"
 width="700.000000pt" height="700.000000pt" viewBox="0 0 700.000000 700.000000"
 preserveAspectRatio="xMidYMid meet">
<metadata>
Created by potrace 1.14, written by Peter Selinger 2001-2017
</metadata>
<g transform="translate(0.000000,700.000000) scale(0.100000,-0.100000)"
fill="#000000" stroke="none">
<path d="M840 6960 c-357 -76 -648 -336 -767 -685 -56 -164 -53 -23 -53 -2792
0 -2503 0 -2557 20 -2651 22 -111 52 -192 110 -299 113 -210 313 -385 538
-469 186 -70 -36 -65 2857 -62 l2610 3 80 23 c118 34 288 121 381 195 174 139
299 331 361 559 17 59 18 219 18 2713 l0 2650 -28 90 c-112 358 -371 609 -742
719 -70 21 -70 21 -2685 23 -2496 2 -2619 1 -2700 -17z m881 -2535 l1154
-2059 3 2022 2 2022 235 0 235 0 0 -2957 c-1 -2543 -3 -2955 -15 -2939 -7 10
-533 936 -1167 2058 l-1153 2040 -3 -2016 -2 -2016 -230 0 -230 0 0 2962 c0
1629 4 2958 8 2953 5 -6 528 -937 1163 -2070z m3949 1990 c274 -61 534 -203
767 -419 l72 -67 -70 -142 c-39 -78 -91 -179 -116 -225 l-45 -82 -72 67 c-199
186 -386 289 -606 335 -123 26 -322 21 -450 -12 -498 -126 -838 -634 -979
-1460 -79 -461 -93 -1123 -35 -1660 92 -866 378 -1426 832 -1632 159 -72 409
-105 592 -79 221 33 435 141 616 314 l73 68 24 -38 c13 -21 70 -116 127 -211
l102 -174 -43 -45 c-56 -57 -167 -148 -244 -199 -506 -337 -1186 -334 -1642 7
-470 353 -780 1027 -882 1922 -33 288 -44 553 -38 902 15 806 132 1392 382
1900 271 554 650 870 1130 944 93 15 417 6 505 -14z m-69 -2172 l132 -396 408
6 c225 3 409 3 409 -1 -1 -6 -205 -157 -654 -485 -17 -13 -12 -32 113 -397 72
-210 129 -385 126 -388 -2 -3 -152 101 -332 230 -181 129 -333 238 -340 242
-7 4 -141 -90 -339 -239 -180 -135 -329 -244 -330 -242 -2 2 232 744 250 792
2 6 -147 116 -330 245 -219 153 -330 237 -321 242 6 4 195 8 419 8 l406 0 11
33 c5 17 58 187 116 377 118 387 113 370 119 370 2 0 64 -178 137 -397z"/>
</g>
</svg>
