<svg xmlns="http://www.w3.org/2000/svg" viewBox="0 0 237.1176 70">
  <g>
    <g>
      <path d="M32.1484,52.2129c-.2426-3.7266-.5341-8.2061-.4858-11.5361h-.1455C30.4,43.8086,29.041,47.1387,27.39,50.8252L21.6123,63.7891H18.4077L13.1152,51.0635A104.3322,104.3322,0,0,1,9.3281,40.6768H9.231c-.0972,3.33-.34,7.81-.6309,11.8134l-.874,11.4571h-4.03L5.978,37.2285h5.3892l5.584,12.9229a94.6219,94.6219,0,0,1,3.3017,8.999h.1455a88.59,88.59,0,0,1,3.4473-8.999l5.8262-12.9229h5.39l2.0391,26.7188h-4.127Z"/>
      <path d="M60.5474,51.42H47.8262v9.6338H62.0039v2.8936H43.6021V37.2285H61.2754v2.8936H47.8262v8.4443H60.5474Z"/>
      <path d="M67.4878,37.585a53.6928,53.6928,0,0,1,8.1084-.5547c4.5156,0,7.4287.6738,9.4683,2.1806a6.13,6.13,0,0,1,2.5732,5.0743c0,3.5273-2.7192,5.8662-6.1665,6.8183v.1182c2.5249.7138,4.03,2.6172,4.8071,5.3916,1.0679,3.7265,1.8447,6.3037,2.5244,7.334h-4.37c-.5342-.753-1.2622-3.0528-2.1851-6.3828-.9707-3.6866-2.7187-5.0743-6.5546-5.1924H71.7119V63.9473H67.4878Zm4.2241,12.17h4.3213c4.5156,0,7.38-2.0215,7.38-5.0742,0-3.4483-3.0591-4.9551-7.5259-4.9942a21.2,21.2,0,0,0-4.1758.3164Z"/>
      <path d="M116.62,63.0752a25.14,25.14,0,0,1-8.6426,1.2686c-9.2251,0-16.1679-4.7569-16.1679-13.5186,0-8.3643,6.9428-14.0332,17.0908-14.0332a20.9568,20.9568,0,0,1,7.7685,1.1894l-1.0195,2.8145a18.3761,18.3761,0,0,0-6.6035-1.1094c-7.6714,0-12.77,4.0039-12.77,11.02,0,6.541,4.6128,10.7432,12.5752,10.7432a20.2307,20.2307,0,0,0,6.8945-1.11Z"/>
      <path d="M126.1333,37.2285V48.4072h15.8286V37.2285h4.2725V63.9473h-4.2725V51.42H126.1333V63.9473h-4.2241V37.2285Z"/>
      <path d="M158.8555,55.543l-3.3985,8.4043h-4.37l11.1192-26.7188h5.0976l11.167,26.7188h-4.5156L170.46,55.543Zm10.73-2.6953-3.205-7.69c-.7276-1.7451-1.2139-3.33-1.6993-4.876h-.0966c-.4854,1.585-1.02,3.211-1.6514,4.836L159.73,52.8477Z"/>
      <path d="M183.2744,63.9473V37.2285h4.6123L198.374,50.7461a72.8534,72.8534,0,0,1,5.875,8.6816l.0977-.039a97.0664,97.0664,0,0,1-.4863-10.9815V37.2285h3.9814V63.9473h-4.2725L193.1787,50.39a81.8786,81.8786,0,0,1-6.1172-8.92l-.1455.04c.2422,3.3691.34,6.58.34,11.02v11.417Z"/>
      <path d="M221.4336,40.1621H211.48V37.2285H235.708v2.9336H225.7061V63.9473h-4.2725Z"/>
    </g>
    <g>
      <path d="M5.0215,5.26h7.1631V19.8789h.247c1.482-1.1689,2.9639-2.249,4.3638-3.2383L33.7568,5.26h8.8921L22.5591,18.125,44.2134,35.5781h-8.48l-18.2788-14.89-5.27,3.3291v11.56H5.0215Z"/>
      <path d="M49.6465,5.6641a135.501,135.501,0,0,1,13.75-.6289c7.6572,0,12.5971.7646,16.0556,2.4736,2.7994,1.35,4.3638,3.4189,4.3638,5.7578,0,4.0039-4.6108,6.6572-10.457,7.7373v.1348c4.2817.8095,6.834,2.9687,8.1513,6.1172,1.8116,4.2285,3.1289,7.1523,4.2818,8.3222h-7.41c-.9057-.8545-2.1411-3.4638-3.7055-7.2422-1.6465-4.1836-4.61-5.7578-11.1153-5.8925H56.81V35.5781H49.6465Zm7.1636,13.81h7.3276c7.6577,0,12.5156-2.2949,12.5156-5.7578,0-3.9141-5.1875-5.623-12.7622-5.668a53.278,53.278,0,0,0-7.081.3594Z"/>
      <path d="M103.3286,26.042l-5.7637,9.5361h-7.41L109.01,5.26h8.645l18.9375,30.3183h-7.6572l-5.9283-9.5361Zm18.1963-3.06-5.4341-8.7265a49.5065,49.5065,0,0,1-2.8818-5.5323h-.1651c-.8232,1.7989-1.729,3.6436-2.7993,5.4873l-5.4341,8.7715Z"/>
      <path d="M144.7432,35.5781V5.26h7.8222L170.35,20.5986a90.26,90.26,0,0,1,9.9629,9.8516l.165-.0449a74.0578,74.0578,0,0,1-.8232-12.46V5.26h6.751V35.5781H179.16L161.54,20.1943a102.437,102.437,0,0,1-10.374-10.1211l-.2471.045a111.4417,111.4417,0,0,1,.5762,12.5048V35.5781Z"/>
      <path d="M195.1318,33.2842l30.794-24.6055V8.543H197.7666V5.26h37.4639V7.6436l-30.63,24.5156v.1347h31.041v3.2842h-40.51Z"/>
    </g>
  </g>
  <rect y="19.2941" width="237.1176" height="30.3529" fill="#fff" opacity="0.38"/>
</svg>
