<svg xmlns="http://www.w3.org/2000/svg" viewBox="0 0 86 86">
  <path d="M71.2087,45.5941c-.5826-8.9463-1.2824-19.7-1.1664-27.6946H69.693c-2.6808,7.5185-5.9443,15.513-9.9075,24.3632L45.9147,73.3849H38.2215l-12.7056-30.55A250.431,250.431,0,0,1,16.4242,17.9h-.2333c-.2332,7.9944-.8158,18.7483-1.5145,28.36L12.5782,73.7647H2.9028L8.3817,9.6213H21.3194L34.7248,40.6451a227.1091,227.1091,0,0,1,7.9265,21.6038h.3493a212.6408,212.6408,0,0,1,8.2758-21.6038L65.2632,9.6213H78.2021l4.8951,64.1434H73.19Z"/>
  <rect width="86" height="39.4344" fill="#fff" opacity="0.38"/>
</svg>
