<svg xmlns="http://www.w3.org/2000/svg" width="6064.9412" height="1304.4706" viewBox="0 0 6064.9412 1304.4706">
  <g>
    <g>
      <rect x="23.9998" y="23.9997" width="6016.9414" height="1256.4707" fill="#7a7a7a"/>
      <path d="M6016.9415,48V1256.47H48V48H6016.9415m48-48H0V1304.47H6064.9415V0Z" fill="#30316a"/>
    </g>
    <g>
      <polygon points="377.898 1208.414 242.695 755.965 189.992 910.995 189.992 1208.414 109.259 1208.414 109.259 102.362 189.992 102.362 189.992 636.946 369.005 102.362 457.61 102.362 292.179 606.11 467.59 1208.414 377.898 1208.414" fill="#30316a" stroke="#7a7a7a"/>
      <path d="M768.8568,926.7819l-82.604-248.9052a149.7371,149.7371,0,0,1-15.2989.7754H593.5506v248.13H512.8172V102.39H670.9539c36.4756,0,68.2886,12.6621,94.5542,37.6358,24.898,23.6816,44.1382,57.5937,57.19,100.7988,12.5781,41.6563,18.955,92.3975,18.955,150.8145,0,56.9511-6.3774,106.94-18.955,148.5791-13.0435,43.1953-32.2842,77.1084-57.187,100.7949q-2.0084,1.91-4.0723,3.7324L855.557,926.7819Zm-98.95-360.5449c29.0581,0,49.7519-12.9023,65.1235-40.6035,17.1787-30.9561,25.8891-76.0381,25.8891-133.9941,0-58.6827-8.7109-104.1416-25.8911-135.1162-15.3764-27.6963-36.0708-40.6-65.1215-40.6H593.5506V566.237Z" fill="#30316a" stroke="#7a7a7a"/>
      <polygon points="1004.834 926.782 1004.834 638.448 851.422 102.39 936.458 102.39 1046.247 485.939 1156.036 102.39 1238.455 102.39 1085.044 638.447 1085.044 926.782 1004.834 926.782" fill="#30316a" stroke="#7a7a7a"/>
      <path d="M1273.3475,926.7819V102.39h158.1367c36.4761,0,68.2886,12.6621,94.5542,37.6358,24.898,23.6816,44.1387,57.5937,57.19,100.7988,12.5782,41.6563,18.9551,92.3975,18.9551,150.8145,0,56.9511-6.3774,106.94-18.9551,148.5791-13.0273,43.1435-32.2246,77.2021-57.0576,101.23-26.2676,25.4277-58.126,38.3222-94.6865,38.3222h-77.4033V926.7819Zm157.09-361.663c29.1065,0,49.815-12.751,65.17-40.129,17.1485-30.5683,25.8428-75.4345,25.8428-133.35,0-58.6827-8.7109-104.1416-25.8911-135.1162-15.3765-27.6963-36.0708-40.6-65.1216-40.6h-76.3564V565.1189Z" fill="#30316a" stroke="#7a7a7a"/>
      <polygon points="1734.482 926.782 1734.482 215.924 1605.72 215.924 1605.72 102.39 1943.977 102.39 1943.977 215.924 1815.216 215.924 1815.216 926.782 1734.482 926.782" fill="#30316a" stroke="#7a7a7a"/>
      <path d="M2171.078,933.488c-32.5147,0-62.8541-11.6172-90.1753-34.5283-25.7564-21.5791-48.1983-52.1524-66.6954-90.8643-17.9448-37.539-32.059-81.6972-41.9487-131.2441-9.8208-49.1582-14.8008-103.753-14.8008-162.2647s4.98-113.1064,14.8013-162.2695c9.8828-49.5117,23.9966-93.6689,41.9482-131.2393,18.4874-38.6738,40.8189-69.2275,66.3755-90.8164,27.1768-22.9453,57.6221-34.5771,90.4952-34.5771,32.5161,0,62.7841,11.6308,89.9643,34.5713,25.5523,21.5918,47.8706,51.9316,66.3442,90.1836,17.9556,37.1806,32.084,81.373,41.9927,131.35,9.8174,49.5771,14.7949,104.35,14.7949,162.7978,0,58.4658-4.9775,113.2373-14.7944,162.794-9.9028,49.9658-24.0312,94.1592-41.9932,131.3525-18.4887,38.2832-40.809,68.625-66.3413,90.1817C2233.889,921.8552,2203.618,933.488,2171.078,933.488Zm0-722.0352c-16.9893,0-32.5728,6.2256-47.6412,19.0323-16.4809,14.0214-31.229,34.6064-43.8261,61.1748-13.1568,27.748-23.5259,60.6777-30.82,97.873-7.3808,37.5986-11.123,79.6709-11.123,125.0537,0,44.6582,3.7446,86.5547,11.1294,124.5264,7.2978,37.58,17.6641,70.6826,30.8115,98.3955,12.6,26.5889,27.3443,47.1689,43.8281,61.1787,15.0547,12.81,30.6353,19.0322,47.6412,19.0322,16.9663,0,32.4375-6.2031,47.2978-18.9629,16.312-13.996,30.8921-34.57,43.3413-61.1533,12.9893-27.7363,23.2852-60.6972,30.6021-97.9677,7.3794-37.6319,11.1215-79.7061,11.1215-125.0489s-3.7421-87.4179-11.1225-125.0537c-7.31-37.2363-17.6065-70.1992-30.603-97.9687-12.4468-26.5616-27.0308-47.14-43.3423-61.1514C2203.5018,217.6579,2188.0277,211.4528,2171.078,211.4528Z" fill="#30316a" stroke="#7a7a7a"/>
      <polygon points="2972.367 926.782 2972.367 436.384 2865.453 827.306 2815.107 827.306 2708.164 438.937 2708.164 926.782 2629.001 926.782 2629.001 102.39 2697.943 102.39 2840.916 623.308 2982.549 102.39 3051.53 102.39 3051.53 926.782 2972.367 926.782" fill="#30316a" stroke="#7a7a7a"/>
      <polygon points="3160.268 926.782 3160.268 102.39 3453.512 102.39 3453.512 215.924 3241.002 215.924 3241.002 452.231 3430.481 452.231 3430.481 564.646 3241.002 564.646 3241.002 813.249 3461.363 813.249 3461.363 926.782 3160.268 926.782" fill="#30316a" stroke="#7a7a7a"/>
      <path d="M3797.8778,926.7819l-82.6036-248.9052a149.714,149.714,0,0,1-15.2978.7754h-77.4043v248.13h-80.7334V102.39h158.1377c36.4756,0,68.2881,12.6621,94.5537,37.6358,24.8975,23.6816,44.1387,57.5947,57.1895,100.7988,12.5781,41.6533,18.955,92.3945,18.955,150.8145,0,56.9541-6.3769,106.9433-18.955,148.5791-13.043,43.1953-32.2832,77.1084-57.1875,100.7949q-2.0069,1.91-4.0713,3.7324l94.1181,282.0361ZM3698.93,566.237c29.0586,0,49.752-12.9023,65.1231-40.6035,17.1787-30.9541,25.8886-76.0361,25.8886-133.9941,0-58.6836-8.7109-104.1436-25.8906-135.1153-15.376-27.6972-36.07-40.6006-65.1211-40.6006h-76.3574V566.237Z" fill="#30316a" stroke="#7a7a7a"/>
      <path d="M4131.7967,933.488c-32.55,0-62.8213-11.6338-89.9746-34.5791-25.5508-21.5654-47.7969-51.9336-66.1094-90.2539-17.7812-37.1885-31.8105-81.3574-41.6943-131.2764-9.8174-49.5127-14.7949-104.2851-14.7949-162.792,0-58.4892,4.9775-113.2627,14.7949-162.7968,9.8945-49.9473,24.0224-94.1407,41.9931-131.3506,18.4786-38.2637,40.7979-68.6035,66.337-90.1778,27.1767-22.9453,57.4462-34.5771,89.9716-34.5771,31.3409,0,60.98,11.1719,88.0928,33.2041,25.9668,21.1084,47.918,52.6094,65.2481,93.6289l3.6377,8.6123L4241.5,333.1989l-18.8779-41.2343c-13.5645-29.627-28.2871-50.9327-43.76-63.3262-14.4424-11.5635-29.3242-17.1856-45.4951-17.1856-16.9892,0-32.5723,6.2256-47.6406,19.0313-16.4815,14.0234-31.2305,34.6074-43.8262,61.1758-13.1611,27.7568-23.624,60.7168-31.1,97.9648-7.543,37.5781-11.3672,79.6221-11.3672,124.9619s3.8242,87.3828,11.3672,124.961c7.4815,37.2783,17.9443,70.2363,31.0967,97.9609,12.6,26.5879,27.3437,47.1689,43.8291,61.1787,15.0547,12.81,30.6348,19.0322,47.6406,19.0322,16.083,0,30.8975-5.75,45.29-17.5771,15.581-12.7959,30.371-34.3438,43.9628-64.0479l18.875-41.25,47.8038,102.0811-3.6377,8.6123c-17.3067,40.9658-39.2071,72.6123-65.0928,94.06C4193.4451,922.0847,4163.577,933.488,4131.7967,933.488Z" fill="#30316a" stroke="#7a7a7a"/>
      <polygon points="4627.412 926.782 4627.412 565.764 4440.152 565.764 4440.152 926.782 4359.419 926.782 4359.419 102.39 4440.152 102.39 4440.152 451.114 4627.412 451.114 4627.412 102.39 4707.622 102.39 4707.622 926.782 4627.412 926.782" fill="#30316a" stroke="#7a7a7a"/>
      <path d="M5094.0574,926.7819l-43.8-209.01H4879.8983l-43.8,209.01h-83.3311L4929.2537,102.39h72.1709l176.4873,824.3916ZM5027.4022,608.71,4965.078,311.3054,4902.7537,608.71Z" fill="#30316a" stroke="#7a7a7a"/>
      <polygon points="5503.729 926.782 5303.793 388.237 5303.793 926.782 5223.059 926.782 5223.059 102.39 5290.582 102.39 5491.053 641.257 5491.053 102.39 5571.263 102.39 5571.263 926.782 5503.729 926.782" fill="#30316a" stroke="#7a7a7a"/>
      <polygon points="5751.187 926.782 5751.187 215.924 5622.426 215.924 5622.426 102.39 5960.683 102.39 5960.683 215.924 5831.921 215.924 5831.921 926.782 5751.187 926.782" fill="#30316a" stroke="#7a7a7a"/>
    </g>
    <line x1="510.1176" y1="1001.1281" x2="5960.1176" y2="1001.1281" fill="#61ce70" stroke="#30316a" stroke-width="40"/>
    <line x1="511.2941" y1="1095.5722" x2="5961.2941" y2="1095.5722" fill="#61ce70" stroke="#30316a" stroke-width="40"/>
  </g>
</svg>
