<svg xmlns="http://www.w3.org/2000/svg" xmlns:xlink="http://www.w3.org/1999/xlink" width="3000" height="3000" viewBox="0 0 3000 3000">
  <defs>
    <clipPath id="a">
      <circle cx="1500" cy="1500" r="1500" fill="none"/>
    </clipPath>
    <linearGradient id="b" x1="1427.25" y1="1514.011" x2="2751.0147" y2="1514.011" gradientUnits="userSpaceOnUse">
      <stop offset="0" stop-color="#8dbfe0"/>
      <stop offset="0.2642" stop-color="#759ac2"/>
      <stop offset="0.2852" stop-color="#7296bf"/>
      <stop offset="0.5802" stop-color="#4f6091"/>
      <stop offset="0.8007" stop-color="#383e75"/>
      <stop offset="0.9205" stop-color="#30316a"/>
    </linearGradient>
    <linearGradient id="c" x1="368" y1="1514.1483" x2="1426.8494" y2="1514.1483" gradientUnits="userSpaceOnUse">
      <stop offset="0.0503" stop-color="#7da9ce"/>
      <stop offset="0.9887" stop-color="#fff"/>
    </linearGradient>
  </defs>
  <circle cx="1500" cy="1500" r="1500" fill="#30316a"/>
  <g clip-path="url(#a)">
    <polygon points="1978.529 1857.941 1681.588 1245 1679.235 2400 1427.335 2400 1427.25 628.022 1668.882 628.022 2064.294 1458.022 2443.941 628.022 2751.015 628.022 2751.015 2399.059 2449.471 2400 2449.588 1245 2142.294 1857.941 1978.529 1857.941" fill="url(#b)"/>
    <polygon points="368 628.022 807 628.022 807 1269.831 1426.765 628.022 1426.849 968.941 1039.087 1370.481 1426.765 1864.419 1426.849 2400.275 807 1610.814 807 2400.275 368 2400.275 368 628.022" fill="url(#c)"/>
  </g>
</svg>
